<svg xmlns="http://www.w3.org/2000/svg" viewBox="0 0 800 450">
  <defs>
    <linearGradient id="bg" x1="0%" y1="0%" x2="100%" y2="100%">
      <stop offset="0%" style="stop-color:#0F172A"/>
      <stop offset="100%" style="stop-color:#1E293B"/>
    </linearGradient>
  </defs>
  <rect width="800" height="450" fill="url(#bg)"/>
  <rect x="180" y="80" width="440" height="300" rx="12" fill="#1E293B" stroke="#3B82F6" stroke-width="2"/>
  <rect x="210" y="110" width="380" height="8" rx="2" fill="#3B82F6" opacity="0.6"/>
  <rect x="210" y="130" width="300" height="6" rx="2" fill="#475569"/>
  <rect x="210" y="145" width="350" height="6" rx="2" fill="#475569"/>
  <rect x="210" y="165" width="250" height="6" rx="2" fill="#475569"/>
  <rect x="210" y="190" width="380" height="6" rx="2" fill="#3B82F6" opacity="0.4"/>
  <rect x="210" y="210" width="320" height="6" rx="2" fill="#475569"/>
  <rect x="210" y="225" width="360" height="6" rx="2" fill="#475569"/>
  <rect x="210" y="245" width="200" height="6" rx="2" fill="#475569"/>
  <rect x="210" y="270" width="380" height="6" rx="2" fill="#3B82F6" opacity="0.4"/>
  <rect x="210" y="290" width="340" height="6" rx="2" fill="#475569"/>
  <rect x="210" y="305" width="280" height="6" rx="2" fill="#475569"/>
  <rect x="210" y="330" width="380" height="6" rx="2" fill="#3B82F6" opacity="0.4"/>
  <rect x="210" y="350" width="300" height="6" rx="2" fill="#475569"/>
  <text x="400" y="420" font-family="Outfit, sans-serif" font-size="20" font-weight="700" fill="white" text-anchor="middle" letter-spacing="-0.5">Final Year Project Report Guide</text>
</svg>
