<svg xmlns="http://www.w3.org/2000/svg" viewBox="0 0 800 450">
  <defs>
    <linearGradient id="bg" x1="0%" y1="0%" x2="100%" y2="100%">
      <stop offset="0%" style="stop-color:#0F172A"/>
      <stop offset="100%" style="stop-color:#1E293B"/>
    </linearGradient>
  </defs>
  <rect width="800" height="450" fill="url(#bg)"/>
  <rect x="140" y="100" width="520" height="250" rx="12" fill="#1E293B" stroke="#3B82F6" stroke-width="1.5"/>
  <rect x="170" y="130" width="460" height="8" rx="2" fill="#3B82F6" opacity="0.3"/>
  <rect x="170" y="150" width="180" height="6" rx="2" fill="#475569"/>
  <rect x="170" y="165" width="400" height="6" rx="2" fill="#475569"/>
  <rect x="170" y="185" width="350" height="6" rx="2" fill="#475569"/>
  <rect x="170" y="210" width="460" height="6" rx="2" fill="#3B82F6" opacity="0.2"/>
  <rect x="170" y="230" width="200" height="6" rx="2" fill="#475569"/>
  <rect x="170" y="245" width="420" height="6" rx="2" fill="#475569"/>
  <rect x="170" y="265" width="380" height="6" rx="2" fill="#475569"/>
  <rect x="170" y="290" width="460" height="6" rx="2" fill="#3B82F6" opacity="0.2"/>
  <rect x="170" y="310" width="300" height="6" rx="2" fill="#475569"/>
  <rect x="170" y="325" width="250" height="6" rx="2" fill="#475569"/>
  <text x="400" y="420" font-family="Outfit, sans-serif" font-size="20" font-weight="700" fill="white" text-anchor="middle" letter-spacing="-0.5">How to Build a Strong Engineering Portfolio</text>
</svg>
