<svg width="400" height="200" viewBox="0 0 400 200" fill="none" xmlns="http://www.w3.org/2000/svg">
  <rect width="400" height="200" fill="#0F172A"/>
  <!-- Code brackets -->
  <text x="120" y="115" font-family="monospace" font-weight="700" font-size="70" fill="#2563EB" opacity="0.15">&lt;/&gt;</text>
  <!-- Python icon simplified -->
  <rect x="165" y="60" width="70" height="85" rx="10" fill="#3776AB" opacity="0.2" stroke="#3776AB" stroke-width="1.5"/>
  <rect x="170" y="67" width="60" height="10" rx="3" fill="#3776AB" opacity="0.5"/>
  <rect x="170" y="82" width="40" height="6" rx="2" fill="#3776AB" opacity="0.3"/>
  <rect x="170" y="93" width="50" height="6" rx="2" fill="#3776AB" opacity="0.3"/>
  <rect x="170" y="104" width="35" height="6" rx="2" fill="#FFD43B" opacity="0.4"/>
  <rect x="170" y="115" width="45" height="6" rx="2" fill="#3776AB" opacity="0.3"/>
  <rect x="170" y="126" width="55" height="6" rx="2" fill="#3776AB" opacity="0.3"/>
  <!-- Number lines -->
  <text x="155" y="75" font-family="monospace" font-weight="400" font-size="7" fill="#475569">1</text>
  <text x="155" y="90" font-family="monospace" font-weight="400" font-size="7" fill="#475569">2</text>
  <text x="155" y="101" font-family="monospace" font-weight="400" font-size="7" fill="#475569">3</text>
  <text x="155" y="112" font-family="monospace" font-weight="400" font-size="7" fill="#475569">4</text>
  <text x="155" y="123" font-family="monospace" font-weight="400" font-size="7" fill="#475569">5</text>
  <text x="155" y="134" font-family="monospace" font-weight="400" font-size="7" fill="#475569">6</text>
  <!-- Checkmark -->
  <circle cx="310" cy="85" r="22" fill="#10B981" opacity="0.15"/>
  <path d="M300 85l7 7 12-14" stroke="#10B981" stroke-width="3" stroke-linecap="round" stroke-linejoin="round" fill="none"/>
  <text x="200" y="180" font-family="Inter, sans-serif" font-weight="600" font-size="9" fill="#64748B" text-anchor="middle">PYTHON</text>
</svg>
