<svg width="1200" height="630" viewBox="0 0 1200 630" fill="none" xmlns="http://www.w3.org/2000/svg">
  <rect width="1200" height="630" fill="#0F172A"/>
  <rect x="0" y="0" width="1200" height="630" fill="url(#grad)" />
  <defs>
    <linearGradient id="grad" x1="0" y1="0" x2="1" y2="1">
      <stop offset="0%" stop-color="#1E293B"/>
      <stop offset="100%" stop-color="#0F172A"/>
    </linearGradient>
  </defs>
  <circle cx="1000" cy="100" r="300" fill="#2563EB" opacity="0.08"/>
  <circle cx="200" cy="500" r="250" fill="#2563EB" opacity="0.05"/>
  <rect x="80" y="195" width="72" height="82" rx="12" fill="#2563EB"/>
  <path d="M116 230v-28M116 230h20c5 0 10-3.5 10-10s-5-10-10-10h-20v20z" stroke="white" stroke-width="5" stroke-linecap="round" stroke-linejoin="round" fill="none"/>
  <path d="M116 230h16c5 0 10 3.5 10 10s-5 10-10 10h-16" stroke="white" stroke-width="5" stroke-linecap="round" stroke-linejoin="round" fill="none"/>
  <text x="180" y="250" font-family="Inter, -apple-system, sans-serif" font-weight="800" font-size="64" fill="#F8FAFC" letter-spacing="-1">BuildYour</text>
  <text x="180" y="320" font-family="Inter, -apple-system, sans-serif" font-weight="300" font-size="56" fill="#60A5FA" letter-spacing="-0.5">Projects</text>
  <text x="180" y="380" font-family="DM Sans, sans-serif" font-weight="400" font-size="24" fill="#94A3B8">Final Year Projects &amp; Tech Courses</text>
  <text x="180" y="415" font-family="DM Sans, sans-serif" font-weight="400" font-size="20" fill="#64748B">for Engineering Students</text>
  <rect x="180" y="445" width="200" height="48" rx="24" fill="#2563EB"/>
  <text x="280" y="474" font-family="Inter, sans-serif" font-weight="600" font-size="18" fill="white" text-anchor="middle">buildyourprojects.xyz</text>
</svg>
