<svg xmlns="http://www.w3.org/2000/svg" viewBox="0 0 800 450">
  <defs>
    <linearGradient id="bg" x1="0%" y1="0%" x2="100%" y2="100%">
      <stop offset="0%" style="stop-color:#0F172A"/>
      <stop offset="100%" style="stop-color:#1E293B"/>
    </linearGradient>
  </defs>
  <rect width="800" height="450" fill="url(#bg)"/>
  <circle cx="260" cy="200" r="60" fill="#3B82F6" opacity="0.15"/>
  <circle cx="260" cy="200" r="50" fill="#1E293B" stroke="#3B82F6" stroke-width="2"/>
  <ellipse cx="260" cy="185" rx="12" ry="6" fill="#3B82F6" opacity="0.6"/>
  <circle cx="260" cy="175" r="5" fill="#3B82F6" opacity="0.8"/>
  <text x="260" y="215" font-family="DM Sans, sans-serif" font-size="9" fill="#94A3B8" text-anchor="middle">Age 10</text>
  <circle cx="400" cy="180" r="60" fill="#8B5CF6" opacity="0.15"/>
  <circle cx="400" cy="180" r="50" fill="#1E293B" stroke="#8B5CF6" stroke-width="2"/>
  <ellipse cx="400" cy="165" rx="14" ry="7" fill="#8B5CF6" opacity="0.6"/>
  <circle cx="400" cy="153" r="5" fill="#8B5CF6" opacity="0.8"/>
  <text x="400" y="195" font-family="DM Sans, sans-serif" font-size="9" fill="#94A3B8" text-anchor="middle">Age 30</text>
  <circle cx="540" cy="200" r="60" fill="#F59E0B" opacity="0.15"/>
  <circle cx="540" cy="200" r="50" fill="#1E293B" stroke="#F59E0B" stroke-width="2"/>
  <ellipse cx="540" cy="188" rx="14" ry="7" fill="#F59E0B" opacity="0.6"/>
  <circle cx="540" cy="178" r="5" fill="#F59E0B" opacity="0.8"/>
  <text x="540" y="215" font-family="DM Sans, sans-serif" font-size="9" fill="#94A3B8" text-anchor="middle">Age 50</text>
  <line x1="310" y1="200" x2="350" y2="185" stroke="#475569" stroke-width="1.5" stroke-dasharray="4,4"/>
  <line x1="450" y1="185" x2="490" y2="200" stroke="#475569" stroke-width="1.5" stroke-dasharray="4,4"/>
  <text x="400" y="350" font-family="Outfit, sans-serif" font-size="22" font-weight="700" fill="white" text-anchor="middle" letter-spacing="-0.5">TimeTraveller — AI Face Aging</text>
  <text x="400" y="375" font-family="DM Sans, sans-serif" font-size="13" fill="#94A3B8" text-anchor="middle">Stable Diffusion · Flask · OpenCV · Offline</text>
</svg>
